<svg version="1.1" id="Layer_1" xmlns="http://www.w3.org/2000/svg" xmlns:xlink="http://www.w3.org/1999/xlink" x="0px" y="0px"
	 width="100%" viewBox="0 0 736 736" enable-background="new 0 0 736 736" xml:space="preserve" >
<path fill="#ffffff" opacity="1.000000" stroke="none" 
	d="
M580.606323,186.604309 
	C586.518738,197.232300 584.536316,207.577225 580.662659,217.784836 
	C576.141785,229.698044 569.378418,240.411652 562.206604,250.873413 
	C560.161499,253.856705 558.123840,256.845093 555.694153,260.399719 
	C559.857849,261.109070 563.240479,260.548553 566.653442,260.346344 
	C583.505859,259.347778 600.344238,259.103790 616.415771,265.399567 
	C633.817383,272.216431 639.060547,287.904236 629.473633,303.942413 
	C624.602539,312.091248 617.560181,318.261780 610.198730,324.010132 
	C590.923645,339.061798 569.518127,350.607513 547.580017,361.162170 
	C542.869629,363.428436 541.400940,366.117950 541.123779,371.334961 
	C537.581055,438.009918 506.851135,488.029785 448.361908,520.521851 
	C422.950836,534.638306 395.334991,541.137817 366.381195,541.010681 
	C335.167419,540.873657 305.723755,533.245483 278.784729,517.177795 
	C274.369293,514.544250 271.329285,514.843567 267.146362,517.510864 
	C247.895370,529.786621 228.145187,541.218628 206.872559,549.711487 
	C196.648178,553.793518 186.208984,557.273682 174.974487,557.146545 
	C156.905991,556.942017 145.940079,543.732056 149.215439,525.971985 
	C151.520554,513.472778 157.215546,502.379120 163.998642,491.805878 
	C168.204956,485.249268 172.613297,478.822296 177.237518,471.876648 
	C174.136810,471.054352 171.577301,471.544006 168.987061,471.713165 
	C152.324875,472.801331 135.688843,473.178955 119.461777,468.223236 
	C100.671143,462.484619 93.355179,444.971008 103.112686,428.951752 
	C106.413994,423.531860 110.575630,418.743713 115.378212,414.550140 
	C136.167801,396.396973 160.250351,383.517731 184.848602,371.550751 
	C189.791092,369.146240 191.733322,366.514618 191.912674,360.724640 
	C193.133163,321.326721 206.060196,286.024200 231.142517,255.555923 
	C260.242035,220.207779 297.744446,199.130600 343.096497,193.069870 
	C382.438782,187.812302 419.697998,195.027435 454.107605,215.234177 
	C458.216919,217.647324 461.253632,217.803452 465.416656,215.167328 
	C486.824463,201.611404 508.653961,188.791519 532.675903,180.241821 
	C541.363586,177.149765 550.220703,175.161713 559.550720,175.534943 
	C568.246643,175.882782 575.420227,178.890579 580.606323,186.604309 
M264.774506,260.278717 
	C232.871811,292.393829 217.554550,330.935394 220.161270,376.275085 
	C221.233704,394.928436 226.252716,412.611328 234.295715,429.486176 
	C236.064102,433.196442 238.152283,433.955322 242.123260,433.150452 
	C287.348083,423.984222 331.804504,411.916565 375.807831,398.113098 
	C379.437988,396.974335 383.066010,395.848907 386.098846,393.236389 
	C421.956299,362.348450 456.405609,329.989502 488.893646,295.551270 
	C491.896576,292.368134 491.962372,289.972778 489.645844,286.467102 
	C479.051941,270.434906 466.139008,256.667023 450.224091,245.876923 
	C416.715393,223.158478 379.984619,214.792892 340.007385,221.975281 
	C311.377228,227.119049 286.669586,240.221466 264.774506,260.278717 
M445.519226,404.161682 
	C432.300934,408.724304 419.072693,413.258362 405.869568,417.864471 
	C401.013947,419.558441 396.224548,421.251648 392.166718,424.756989 
	C364.036285,449.057434 334.541870,471.613403 304.228821,493.113220 
	C302.950256,494.020081 301.184814,494.605591 301.002014,496.577209 
	C340.461578,518.860840 402.338226,521.147827 452.095917,485.048370 
	C486.324707,460.215149 519.364868,400.771759 511.627167,377.811462 
	C490.070923,387.128204 468.318604,395.911407 445.519226,404.161682 
M185.650482,441.923920 
	C190.767380,441.331055 195.937408,441.019531 200.986145,440.065887 
	C205.993134,439.120117 206.776718,437.360992 204.865372,432.733002 
	C200.853424,423.018860 197.778610,413.024506 195.494247,402.771088 
	C195.189896,401.404968 195.255859,399.727295 193.152039,398.625519 
	C170.831421,410.630341 147.586853,421.654663 129.696823,441.270966 
	C148.154465,445.352966 166.440552,444.004730 185.650482,441.923920 
M577.513184,288.248688 
	C562.157715,288.268341 546.972473,290.198059 531.798096,292.282440 
	C528.288757,292.764465 526.292175,294.670715 527.662109,298.034546 
	C532.197510,309.171021 535.515930,320.656982 538.345642,332.310333 
	C538.458618,332.775665 538.800781,333.185333 539.226746,333.973663 
	C562.284973,321.640869 585.392212,310.442932 604.473572,291.006165 
	C595.061157,287.972595 586.764771,288.272644 577.513184,288.248688 
M185.688004,527.152832 
	C208.243866,520.132385 228.288040,508.192169 249.962433,494.931732 
	C247.559692,493.423035 245.962051,492.725128 244.749969,491.608643 
	C237.628998,485.048981 231.437042,477.654816 225.732117,469.853516 
	C221.573212,464.166321 219.975693,464.083221 215.288956,469.733429 
	C204.659653,482.547791 194.634750,495.811798 186.008362,510.073517 
	C182.600922,515.706848 179.560226,521.551758 177.693268,528.211792 
	C180.601700,529.067383 182.716934,527.679260 185.688004,527.152832 
M551.093750,214.594574 
	C552.422913,211.469864 554.761963,208.663956 554.191284,203.654877 
	C528.189209,209.459549 506.635437,223.401489 483.973572,236.584702 
	C493.067474,245.030594 500.487762,253.318329 507.092072,262.328796 
	C511.322784,268.100891 513.064819,268.259033 517.633545,262.612030 
	C529.775085,247.605057 541.774719,232.482040 551.093750,214.594574 
M459.533295,368.808594 
	C475.510040,362.153625 491.482483,355.488190 507.468597,348.855774 
	C509.669952,347.942444 512.075195,347.218353 511.618286,344.124481 
	C510.408447,335.932892 508.398376,327.947937 505.387634,319.431488 
	C488.066132,336.654175 471.691620,353.742645 453.352753,370.841461 
	C456.081421,369.952637 457.472900,369.499359 459.533295,368.808594 
M315.951172,444.650909 
	C295.758911,450.397552 275.182068,454.625488 254.115753,459.598175 
	C258.921021,466.704346 264.941711,471.424438 270.274017,476.799194 
	C272.594238,479.137909 274.354858,479.293762 277.038391,477.354370 
	C287.940186,469.475800 299.073059,461.915680 309.933990,453.982513 
	C314.068970,450.962219 318.467834,448.115631 322.671173,443.271606 
	C319.860107,443.814850 318.268585,444.122437 315.951172,444.650909 
z"/>
<path fill="#000000" opacity="1.000000" stroke="none" 
	d="
M53.010201,618.658569 
	C263.648560,618.652771 473.789337,618.659668 683.930115,618.615234 
	C694.530396,618.613037 694.641724,620.742920 694.640808,607.737305 
	C694.629822,445.590729 694.622986,283.444153 694.634338,121.297569 
	C694.634460,119.517426 694.212158,117.615669 695.667114,115.866722 
	C699.421875,116.242432 699.178467,119.218941 699.208984,121.745270 
	C699.297668,129.076080 699.195984,136.408966 699.201294,143.741028 
	C699.250061,211.398849 699.090881,279.057922 699.486633,346.713745 
	C699.609436,367.703522 699.224792,388.692627 699.495361,409.668457 
	C700.114319,457.658417 699.928223,505.646912 699.797363,553.633789 
	C699.741943,573.952942 699.212585,594.263733 699.944458,614.584534 
	C700.212708,622.032715 698.460449,623.605225 690.978699,623.989441 
	C687.819092,624.151672 684.648682,624.148804 681.483215,624.148010 
	C471.509613,624.096069 261.536041,624.036804 51.562443,623.974792 
	C49.229900,623.974060 46.885792,624.063171 44.568073,623.864868 
	C42.227436,623.664734 39.896355,623.182983 39.038219,619.672180 
	C43.422806,617.681396 48.082947,619.096741 53.010201,618.658569 
z"/>
</svg>